# xmcd
#
# Track frame offsets:
# 150
# 15949
# 35616
# 53169
# 74495
# 92796
# 112051
# 138213
# 158076
# 180578
# 199506
#
# Disc length: 2871 seconds
#
#
# Revision: 0
# Processed by: cddbd v1.5.1PL2 Copyright (c) Steve Scherf et al.
# Submitted via: FreeRIP 2.944 
#
DISCID=8d0b350b
DTITLE=Chris Cagle - Anywhere But Here
DYEAR=2005
DGENRE=Country
TTITLE0=You  Might Wanna Think About It
TTITLE1=Wal-Mart Parking Lot
TTITLE2=Miss Me Baby
TTITLE3=Maria
TTITLE4=Anywhere But Here
TTITLE5=You Still Do That To Me
TTITLE6=Hey Y'all
TTITLE7=I Was Made For You
TTITLE8=Wanted Dead or Alive
TTITLE9=When I Get There
TTITLE10=I'd Find You
EXTD=
EXTT0=
EXTT1=
EXTT2=
EXTT3=
EXTT4=
EXTT5=
EXTT6=
EXTT7=
EXTT8=
EXTT9=
EXTT10=
PLAYORDER=
